<!--?xml version="1.0" standalone="no"?-->
              <svg id="sw-js-blob-svg" viewBox="0 0 100 100" xmlns="http://www.w3.org/2000/svg" version="1.1">
                    <defs> 
                        <linearGradient id="sw-gradient" x1="0" x2="1" y1="1" y2="0">
                            <stop id="stop1" stop-color="rgba(248, 117, 55, 1)" offset="0%"></stop>
                            <stop id="stop2" stop-color="rgba(251, 168, 31, 1)" offset="100%"></stop>
                        </linearGradient>
                    </defs>
                <path fill="url(#sw-gradient)" d="M19,-19.2C26.8,-16,37,-12.2,40.5,-5.2C44.1,1.7,40.9,11.8,35.8,20.6C30.6,29.4,23.4,36.9,14.4,40.6C5.5,44.3,-5.2,44,-14.5,40.4C-23.8,36.8,-31.6,29.8,-35.3,21.4C-39,13,-38.5,3.1,-35.1,-4.4C-31.6,-11.9,-25.2,-17.2,-18.9,-20.7C-12.5,-24.2,-6.3,-26,-0.4,-25.5C5.5,-25.1,11.1,-22.5,19,-19.2Z" width="100%" height="100%" transform="translate(50 50)" stroke-width="0" style="transition: 0.3s;"></path>
              </svg>