<!--?xml version="1.0" standalone="no"?-->
              <svg id="sw-js-blob-svg" viewBox="0 0 100 100" xmlns="http://www.w3.org/2000/svg" version="1.1">
                    <defs> 
                        <linearGradient id="sw-gradient" x1="0" x2="1" y1="1" y2="0">
                            <stop id="stop1" stop-color="rgba(248, 117, 55, 1)" offset="0%"></stop>
                            <stop id="stop2" stop-color="rgba(251, 168, 31, 1)" offset="100%"></stop>
                        </linearGradient>
                    </defs>
                <path fill="url(#sw-gradient)" d="M17.1,-26.8C22.8,-22.9,28.4,-19.2,30.3,-14.1C32.2,-9,30.5,-2.4,30.3,4.9C30.1,12.3,31.5,20.4,29,27.3C26.4,34.2,19.9,39.9,12.9,40.5C5.8,41,-1.7,36.3,-8.3,32.5C-14.8,28.6,-20.4,25.5,-24.3,21C-28.2,16.6,-30.5,10.6,-28.8,5.7C-27.2,0.7,-21.6,-3.3,-19,-8.4C-16.3,-13.5,-16.5,-19.8,-13.8,-25C-11.1,-30.2,-5.6,-34.4,0.1,-34.5C5.7,-34.6,11.4,-30.6,17.1,-26.8Z" width="100%" height="100%" transform="translate(50 50)" stroke-width="0" style="transition: 0.3s;"></path>
              </svg>