<!--?xml version="1.0" standalone="no"?-->
              <svg id="sw-js-blob-svg" viewBox="0 0 100 100" xmlns="http://www.w3.org/2000/svg" version="1.1">
                    <defs> 
                        <linearGradient id="sw-gradient" x1="0" x2="1" y1="1" y2="0">
                            <stop id="stop1" stop-color="rgba(248, 117, 55, 1)" offset="0%"></stop>
                            <stop id="stop2" stop-color="rgba(251, 168, 31, 1)" offset="100%"></stop>
                        </linearGradient>
                    </defs>
                <path fill="url(#sw-gradient)" d="M15,-20.7C21.9,-21.9,31.6,-22.9,34.1,-19.4C36.5,-15.9,31.7,-8,31.6,0C31.5,7.9,36.2,15.7,33.6,18.9C30.9,22.1,20.9,20.5,14.1,20.6C7.3,20.7,3.6,22.5,-2,26C-7.7,29.5,-15.3,34.6,-20.9,33.8C-26.5,33,-30.1,26.2,-31.8,19.6C-33.6,12.9,-33.6,6.5,-31.9,1C-30.2,-4.5,-26.9,-9.1,-23.3,-12.6C-19.7,-16,-15.9,-18.5,-12,-18.9C-8,-19.3,-4,-17.8,0,-17.8C4,-17.8,8.1,-19.4,15,-20.7Z" width="100%" height="100%" transform="translate(50 50)" stroke-width="0" style="transition: 0.3s;"></path>
              </svg>